<svg xmlns="http://www.w3.org/2000/svg" width="1280" height="720"><rect width="1280" height="720" fill="#f8f6fa"/><rect width="1280" height="92" fill="#3c235f"/><text x="260" y="52" font-family="Segoe UI" font-size="28" font-weight="700" fill="white">Panel de Leads MKT — Panel Ejecutivo</text><g font-family="Segoe UI" fill="#3c235f"><rect x="20" y="130" width="145" height="100" rx="10" fill="white"/><text x="35" y="165" font-size="15">Total Leads</text><rect x="175" y="130" width="145" height="100" rx="10" fill="white"/><text x="190" y="165" font-size="15">Gestionados</text><rect x="330" y="130" width="145" height="100" rx="10" fill="white"/><text x="345" y="165" font-size="15">Citas efectivas</text><rect x="485" y="130" width="145" height="100" rx="10" fill="white"/><text x="500" y="165" font-size="15">Oportunidades</text><rect x="640" y="130" width="145" height="100" rx="10" fill="white"/><text x="655" y="165" font-size="15">% gestionados</text><rect x="795" y="130" width="145" height="100" rx="10" fill="white"/><text x="810" y="165" font-size="15">% cita efectiva</text><rect x="950" y="130" width="145" height="100" rx="10" fill="white"/><text x="965" y="165" font-size="15">% cita/total</text><rect x="1110" y="130" width="145" height="100" rx="10" fill="white"/><text x="1125" y="165" font-size="15">% oportunidades</text></g><g font-family="Segoe UI" fill="#2b2036"><rect x="20" y="290" width="390" height="300" rx="10" fill="white" stroke="#ded6e6"/><text x="35" y="325" font-size="18">Gestión de leads por origen</text><rect x="445" y="290" width="390" height="300" rx="10" fill="white" stroke="#ded6e6"/><text x="460" y="325" font-size="18">Citas efectivas por campaña</text><rect x="870" y="290" width="390" height="300" rx="10" fill="white" stroke="#ded6e6"/><text x="885" y="325" font-size="18">Conversión por sede</text></g><text x="10" y="708" font-family="Segoe UI" font-size="10" fill="#675c70">Captura técnica PBIR S20.1 — sin datos de runtime</text></svg>