<svg xmlns="http://www.w3.org/2000/svg" width="1280" height="720"><rect width="1280" height="720" fill="#f8f6fa"/><rect width="1280" height="92" fill="#3c235f"/><text x="260" y="52" font-family="Segoe UI" font-size="28" font-weight="700" fill="white">Calidad de Datos</text><g font-family="Segoe UI" fill="#3c235f"><rect x="20" y="135" width="190" height="100" rx="10" fill="white"/><text x="35" y="170">Sin sede / %</text><rect x="225" y="135" width="190" height="100" rx="10" fill="white"/><text x="240" y="170">Sin modalidad / %</text><rect x="430" y="135" width="190" height="100" rx="10" fill="white"/><text x="445" y="170">Sin carrera / %</text><rect x="635" y="135" width="190" height="100" rx="10" fill="white"/><text x="650" y="170">Sin facultad / %</text><rect x="840" y="135" width="190" height="100" rx="10" fill="white"/><text x="855" y="170">Sin origen / %</text><rect x="1045" y="135" width="190" height="100" rx="10" fill="white"/><text x="1060" y="170">Sin campaña / %</text></g><rect x="20" y="295" width="1240" height="330" rx="10" fill="white" stroke="#ded6e6"/><text x="35" y="335" font-family="Segoe UI" font-size="20" fill="#2b2036">Cobertura actual de catálogos</text><text x="35" y="375" font-family="Segoe UI" font-size="16" fill="#2b2036">Sede · Modalidad · Carrera · Facultad</text><text x="10" y="708" font-family="Segoe UI" font-size="10" fill="#675c70">Captura técnica PBIR S20.1 — sin datos de runtime</text></svg>